<svg width="12" height="22" viewBox="0 0 12 22" fill="none" xmlns="http://www.w3.org/2000/svg">
<path d="M10.1002 7.81849L3.21669 0.939495C2.93107 0.681254 2.55709 0.542735 2.17217 0.552619C1.78725 0.562503 1.42087 0.720033 1.14889 0.992592C0.876911 1.26515 0.72016 1.63186 0.711094 2.01681C0.702027 2.40175 0.841338 2.77543 1.10019 3.06049L7.97919 9.93949C8.26039 10.2208 8.41836 10.6022 8.41836 11C8.41836 11.3977 8.26039 11.7792 7.97919 12.0605L1.10019 18.9395C0.818923 19.221 0.660992 19.6026 0.661133 20.0005C0.661274 20.3984 0.819475 20.78 1.10094 21.0612C1.3824 21.3425 1.76406 21.5004 2.16197 21.5003C2.55987 21.5002 2.94142 21.342 3.22269 21.0605L10.1002 14.1815C10.9438 13.3376 11.4177 12.1932 11.4177 11C11.4177 9.80676 10.9438 8.66237 10.1002 7.81849Z" fill="white"/>
</svg>
