<svg width="12" height="22" viewBox="0 0 12 22" fill="none" xmlns="http://www.w3.org/2000/svg">
<path d="M1.89982 7.81849L8.78331 0.939495C9.06893 0.681254 9.44291 0.542735 9.82783 0.552619C10.2127 0.562503 10.5791 0.720033 10.8511 0.992592C11.1231 1.26515 11.2798 1.63186 11.2889 2.01681C11.298 2.40175 11.1587 2.77543 10.8998 3.06049L4.02081 9.93949C3.73961 10.2208 3.58164 10.6022 3.58164 11C3.58164 11.3977 3.73961 11.7792 4.02081 12.0605L10.8998 18.9395C11.1811 19.221 11.339 19.6026 11.3389 20.0005C11.3387 20.3984 11.1805 20.78 10.8991 21.0612C10.6176 21.3425 10.2359 21.5004 9.83803 21.5003C9.44013 21.5002 9.05858 21.342 8.77731 21.0605L1.89982 14.1815C1.0562 13.3376 0.582278 12.1932 0.582278 11C0.582278 9.80676 1.0562 8.66237 1.89982 7.81849Z" fill="white"/>
</svg>
